<svg xmlns="http://www.w3.org/2000/svg" width="40.5" viewBox="0 0 40.5 40.5" height="40.5" version="1.0"><defs><clipPath id="a"><path d="M 8 4.050781 L 32.480469 4.050781 L 32.480469 36.300781 L 8 36.300781 Z M 8 4.050781"/></clipPath></defs><g clip-path="url(#a)"><path fill="#EEF1EF" d="M 8.070312 8.265625 L 8.070312 32.085938 C 8.070312 32.085938 7.742188 36.300781 11.515625 36.300781 L 28.695312 36.300781 C 32.46875 36.300781 32.140625 32.085938 32.140625 32.085938 L 32.140625 8.265625 C 32.140625 8.265625 32.46875 4.046875 28.695312 4.046875 L 11.515625 4.046875 C 7.742188 4.046875 8.070312 8.265625 8.070312 8.265625"/></g><path fill="#EEF1EF" d="M 14.957031 16.464844 C 14.957031 16.867188 14.632812 17.191406 14.234375 17.191406 L 11.683594 17.191406 C 11.285156 17.191406 10.960938 16.867188 10.960938 16.464844 L 10.960938 14.292969 C 10.960938 13.890625 11.285156 13.5625 11.683594 13.5625 L 14.234375 13.5625 C 14.632812 13.5625 14.957031 13.890625 14.957031 14.292969 L 14.957031 16.464844"/><path d="M 19.699219 16.464844 C 19.699219 16.867188 19.375 17.191406 18.972656 17.191406 L 16.421875 17.191406 C 16.023438 17.191406 15.699219 16.867188 15.699219 16.464844 L 15.699219 14.292969 C 15.699219 13.890625 16.023438 13.5625 16.421875 13.5625 L 18.972656 13.5625 C 19.375 13.5625 19.699219 13.890625 19.699219 14.292969 L 19.699219 16.464844"/><path d="M 24.476562 16.464844 C 24.476562 16.867188 24.152344 17.191406 23.75 17.191406 L 21.203125 17.191406 C 20.800781 17.191406 20.476562 16.867188 20.476562 16.464844 L 20.476562 14.292969 C 20.476562 13.890625 20.800781 13.5625 21.203125 13.5625 L 23.75 13.5625 C 24.152344 13.5625 24.476562 13.890625 24.476562 14.292969 L 24.476562 16.464844"/><path d="M 29.253906 16.464844 C 29.253906 16.867188 28.929688 17.191406 28.53125 17.191406 L 25.980469 17.191406 C 25.578125 17.191406 25.253906 16.867188 25.253906 16.464844 L 25.253906 14.292969 C 25.253906 13.890625 25.578125 13.5625 25.980469 13.5625 L 28.53125 13.5625 C 28.929688 13.5625 29.253906 13.890625 29.253906 14.292969 L 29.253906 16.464844"/><path d="M 14.957031 21.554688 C 14.957031 21.957031 14.632812 22.28125 14.234375 22.28125 L 11.683594 22.28125 C 11.285156 22.28125 10.960938 21.957031 10.960938 21.554688 L 10.960938 19.382812 C 10.960938 18.980469 11.285156 18.652344 11.683594 18.652344 L 14.234375 18.652344 C 14.632812 18.652344 14.957031 18.980469 14.957031 19.382812 L 14.957031 21.554688"/><path d="M 19.699219 21.554688 C 19.699219 21.957031 19.375 22.28125 18.972656 22.28125 L 16.421875 22.28125 C 16.023438 22.28125 15.699219 21.957031 15.699219 21.554688 L 15.699219 19.382812 C 15.699219 18.980469 16.023438 18.652344 16.421875 18.652344 L 18.972656 18.652344 C 19.375 18.652344 19.699219 18.980469 19.699219 19.382812 L 19.699219 21.554688"/><path d="M 24.476562 21.554688 C 24.476562 21.957031 24.152344 22.28125 23.75 22.28125 L 21.203125 22.28125 C 20.800781 22.28125 20.476562 21.957031 20.476562 21.554688 L 20.476562 19.382812 C 20.476562 18.980469 20.800781 18.652344 21.203125 18.652344 L 23.75 18.652344 C 24.152344 18.652344 24.476562 18.980469 24.476562 19.382812 L 24.476562 21.554688"/><path d="M 29.253906 21.554688 C 29.253906 21.957031 28.929688 22.28125 28.53125 22.28125 L 25.980469 22.28125 C 25.578125 22.28125 25.253906 21.957031 25.253906 21.554688 L 25.253906 19.382812 C 25.253906 18.980469 25.578125 18.652344 25.980469 18.652344 L 28.53125 18.652344 C 28.929688 18.652344 29.253906 18.980469 29.253906 19.382812 L 29.253906 21.554688"/><path d="M 14.957031 26.503906 C 14.957031 26.902344 14.632812 27.230469 14.234375 27.230469 L 11.683594 27.230469 C 11.285156 27.230469 10.960938 26.902344 10.960938 26.503906 L 10.960938 24.328125 C 10.960938 23.925781 11.285156 23.597656 11.683594 23.597656 L 14.234375 23.597656 C 14.632812 23.597656 14.957031 23.925781 14.957031 24.328125 L 14.957031 26.503906"/><path d="M 19.699219 26.503906 C 19.699219 26.902344 19.375 27.230469 18.972656 27.230469 L 16.421875 27.230469 C 16.023438 27.230469 15.699219 26.902344 15.699219 26.503906 L 15.699219 24.328125 C 15.699219 23.925781 16.023438 23.597656 16.421875 23.597656 L 18.972656 23.597656 C 19.375 23.597656 19.699219 23.925781 19.699219 24.328125 L 19.699219 26.503906"/><path d="M 24.476562 26.503906 C 24.476562 26.902344 24.152344 27.230469 23.75 27.230469 L 21.203125 27.230469 C 20.800781 27.230469 20.476562 26.902344 20.476562 26.503906 L 20.476562 24.328125 C 20.476562 23.925781 20.800781 23.597656 21.203125 23.597656 L 23.75 23.597656 C 24.152344 23.597656 24.476562 23.925781 24.476562 24.328125 L 24.476562 26.503906"/><path d="M 29.253906 26.503906 C 29.253906 26.902344 28.929688 27.230469 28.53125 27.230469 L 25.980469 27.230469 C 25.578125 27.230469 25.253906 26.902344 25.253906 26.503906 L 25.253906 24.328125 C 25.253906 23.925781 25.578125 23.597656 25.980469 23.597656 L 28.53125 23.597656 C 28.929688 23.597656 29.253906 23.925781 29.253906 24.328125 L 29.253906 26.503906"/><path d="M 14.957031 31.484375 C 14.957031 31.886719 14.632812 32.210938 14.234375 32.210938 L 11.683594 32.210938 C 11.285156 32.210938 10.960938 31.886719 10.960938 31.484375 L 10.960938 29.3125 C 10.960938 28.910156 11.285156 28.582031 11.683594 28.582031 L 14.234375 28.582031 C 14.632812 28.582031 14.957031 28.910156 14.957031 29.3125 L 14.957031 31.484375"/><path d="M 19.699219 31.484375 C 19.699219 31.886719 19.375 32.210938 18.972656 32.210938 L 16.421875 32.210938 C 16.023438 32.210938 15.699219 31.886719 15.699219 31.484375 L 15.699219 29.3125 C 15.699219 28.910156 16.023438 28.582031 16.421875 28.582031 L 18.972656 28.582031 C 19.375 28.582031 19.699219 28.910156 19.699219 29.3125 L 19.699219 31.484375"/><path d="M 24.476562 31.484375 C 24.476562 31.886719 24.152344 32.210938 23.75 32.210938 L 21.203125 32.210938 C 20.800781 32.210938 20.476562 31.886719 20.476562 31.484375 L 20.476562 29.3125 C 20.476562 28.910156 20.800781 28.582031 21.203125 28.582031 L 23.75 28.582031 C 24.152344 28.582031 24.476562 28.910156 24.476562 29.3125 L 24.476562 31.484375"/><path d="M 29.253906 31.484375 C 29.253906 31.886719 28.929688 32.210938 28.53125 32.210938 L 25.980469 32.210938 C 25.578125 32.210938 25.253906 31.886719 25.253906 31.484375 L 25.253906 29.3125 C 25.253906 28.910156 25.578125 28.582031 25.980469 28.582031 L 28.53125 28.582031 C 28.929688 28.582031 29.253906 28.910156 29.253906 29.3125 L 29.253906 31.484375"/><path d="M 29.253906 10.601562 C 29.253906 11.292969 28.648438 11.851562 27.902344 11.851562 L 12.3125 11.851562 C 11.566406 11.851562 10.960938 11.292969 10.960938 10.601562 L 10.960938 7.976562 C 10.960938 7.285156 11.566406 6.726562 12.3125 6.726562 L 27.902344 6.726562 C 28.648438 6.726562 29.253906 7.285156 29.253906 7.976562 L 29.253906 10.601562"/></svg>