<svg width="29" height="32" viewBox="0 0 29 32" fill="none" xmlns="http://www.w3.org/2000/svg">
<ellipse cx="14.5" cy="16.9559" rx="11.7812" ry="12.3088" stroke="white"/>
<path d="M22.5106 12.0355L22.2055 11.5629L21.8867 11.7713L22.2447 12.3259L22.0477 12.4546L21.5308 11.6538L22.7211 10.8761L23.2369 11.6753L23.0383 11.8051L22.6813 11.2521L22.3976 11.4374L22.7027 11.91L22.5106 12.0355Z" fill="white"/>
<path d="M6.2119 21.9841L5.24794 22.3432L5.09823 22.0925L6.47678 21.6277L6.62799 21.8809L5.93267 22.5717L6.86534 22.2783L7.01656 22.5315L5.96148 23.5379L5.81176 23.2872L6.57726 22.5997L5.59294 22.9208L5.46576 22.7079L6.2119 21.9841Z" fill="white"/>
<path d="M19.2986 25.1704C19.3314 25.215 19.3721 25.2374 19.4208 25.2377C19.4699 25.2385 19.5448 25.2217 19.6456 25.1873C19.7467 25.1534 19.8305 25.1316 19.8969 25.1219C20.0781 25.0958 20.2125 25.1422 20.3001 25.2613C20.3456 25.3232 20.3688 25.3911 20.3699 25.465C20.3708 25.5398 20.3488 25.6149 20.3041 25.6904C20.2589 25.7663 20.1958 25.8344 20.1149 25.8946C20.0334 25.9553 19.9499 25.9944 19.8642 26.0119C19.7788 26.0299 19.6988 26.025 19.6241 25.997C19.5489 25.9694 19.486 25.9213 19.4355 25.8526L19.6705 25.6776C19.709 25.7301 19.7554 25.7585 19.8095 25.7628C19.864 25.7677 19.921 25.748 19.9805 25.7037C20.038 25.6609 20.0736 25.6153 20.0873 25.567C20.1014 25.5191 20.0938 25.4753 20.0645 25.4354C20.0371 25.3982 19.9956 25.3808 19.94 25.3832C19.8839 25.386 19.8114 25.4035 19.7227 25.4355C19.5593 25.4946 19.425 25.517 19.32 25.5027C19.2149 25.4884 19.1296 25.4367 19.064 25.3475C18.9911 25.2484 18.9711 25.1427 19.0042 25.0305C19.0376 24.9188 19.1175 24.8159 19.2438 24.7218C19.3316 24.6565 19.4232 24.613 19.5188 24.5913C19.6148 24.5702 19.7025 24.5735 19.7819 24.6012C19.8608 24.6294 19.9274 24.6804 19.9818 24.7544L19.746 24.9299C19.653 24.8035 19.5314 24.7963 19.381 24.9082C19.3251 24.9498 19.2898 24.9936 19.275 25.0395C19.2607 25.0859 19.2685 25.1295 19.2986 25.1704Z" fill="white"/>
<path d="M23.2723 18.6724C23.2992 18.6789 23.322 18.6744 23.3408 18.6589C23.3599 18.6434 23.3832 18.6128 23.4108 18.5673C23.4388 18.5218 23.4639 18.4865 23.4863 18.4614C23.5474 18.3931 23.6139 18.3677 23.6857 18.385C23.7231 18.394 23.7538 18.4125 23.7779 18.4404C23.8023 18.4688 23.818 18.5045 23.8251 18.5478C23.8321 18.5913 23.8298 18.6377 23.8181 18.6867C23.8063 18.7361 23.7868 18.778 23.7595 18.8122C23.7326 18.8466 23.7003 18.8704 23.6626 18.8838C23.6249 18.8974 23.5853 18.8992 23.5438 18.8892L23.5778 18.7468C23.6095 18.7544 23.6364 18.7503 23.6585 18.7346C23.681 18.7189 23.6966 18.6931 23.7052 18.657C23.7135 18.6221 23.7125 18.5933 23.7023 18.5704C23.6923 18.5475 23.6753 18.5332 23.6513 18.5274C23.6288 18.522 23.6073 18.5287 23.5867 18.5475C23.5661 18.5666 23.5439 18.5966 23.5201 18.6374C23.4764 18.7125 23.4321 18.7643 23.3872 18.7926C23.3423 18.821 23.2929 18.8286 23.2391 18.8156C23.1793 18.8012 23.1377 18.7672 23.1144 18.7137C23.0913 18.6602 23.0889 18.5952 23.1072 18.5185C23.1199 18.4654 23.1411 18.4192 23.1708 18.3802C23.2009 18.3413 23.2356 18.3143 23.275 18.2994C23.3143 18.2847 23.3562 18.2828 23.4008 18.2936L23.3667 18.4366C23.2905 18.4181 23.2415 18.4545 23.2197 18.5457C23.2116 18.5796 23.2121 18.6077 23.2212 18.63C23.2306 18.6523 23.2476 18.6665 23.2723 18.6724ZM23.234 19.3569L23.2992 19.0833L23.1141 19.0386L23.0375 19.3597L22.9231 19.332L23.0337 18.8685L23.7248 19.0354L23.6144 19.498L23.4991 19.4702L23.5755 19.15L23.4108 19.1103L23.3455 19.3838L23.234 19.3569Z" fill="white"/>
<path d="M15.9519 8.12452L15.8077 8.09894L15.6077 7.58838L15.5269 8.04913L15.3827 8.02354L15.5054 7.32328L15.6496 7.34886L15.85 7.86047L15.9309 7.39876L16.0746 7.42426L15.9519 8.12452ZM16.5522 7.9181L16.2753 7.86898L16.2424 8.05655L16.5674 8.1142L16.5471 8.23011L16.0779 8.14687L16.2006 7.4466L16.6689 7.52968L16.6484 7.64655L16.3243 7.58906L16.2951 7.75595L16.572 7.80508L16.5522 7.9181Z" fill="white"/>
<path d="M5.13112 15.9571L5.08853 16.0972L4.55852 16.2326L5.00562 16.3701L4.96303 16.5102L4.28351 16.3012L4.3261 16.1611L4.85719 16.0256L4.40916 15.8878L4.45161 15.7481L5.13112 15.9571ZM5.1333 15.2446L4.67762 15.0043L4.72007 14.8646L5.35373 15.2245L5.31086 15.3656L4.82264 15.3365L5.24356 15.5871L5.20069 15.7282L4.47531 15.6701L4.51776 15.5304L5.0283 15.5868L4.5798 15.3262L4.61586 15.2075L5.1333 15.2446Z" fill="white"/>
<path d="M28.5 16.9559C28.5 25.0059 22.2148 31.5 14.5 31.5C6.78521 31.5 0.5 25.0059 0.5 16.9559C0.5 8.90585 6.78521 2.41174 14.5 2.41174C22.2148 2.41174 28.5 8.90585 28.5 16.9559Z" stroke="white"/>
<path d="M11.9017 13.2043L24.5181 22.8272L16.9193 22.3342L13.8768 29.0084L11.9017 13.2043Z" fill="#B61917"/>
<path d="M7.43445 4.64702L5.95869 10.1882L11.4663 11.6729L12.9421 6.13177L7.43445 4.64702Z" fill="#B61917"/>
<path d="M11.9017 13.2043L24.5181 22.8272L16.9192 22.3342L11.9017 13.2043Z" fill="#E51B25"/>
<path d="M8.58575 3.73042L6.93646 1L4.53125 2.63825L6.11182 5.16389" stroke="white"/>
</svg>
